<mxfile host="app.diagrams.net" agent="Mozilla/5.0 (Windows NT 10.0; Win64; x64) AppleWebKit/537.36 (KHTML, like Gecko) Chrome/136.0.0.0 Safari/537.36" version="27.0.3">
  <diagram id="C5RBs43oDa-KdzZeNtuy" name="Page-1">
    <mxGraphModel dx="1213" dy="631" grid="1" gridSize="10" guides="1" tooltips="1" connect="1" arrows="1" fold="1" page="1" pageScale="1" pageWidth="827" pageHeight="1169" math="0" shadow="0">
      <root>
        <mxCell id="WIyWlLk6GJQsqaUBKTNV-0" />
        <mxCell id="WIyWlLk6GJQsqaUBKTNV-1" parent="WIyWlLk6GJQsqaUBKTNV-0" />
        <mxCell id="u-MCPZwp57srw_KDi1BU-45" value="" style="rounded=0;whiteSpace=wrap;html=1;hachureGap=4;strokeColor=default;align=center;verticalAlign=middle;fontFamily=Architects Daughter;fontSource=https%3A%2F%2Ffonts.googleapis.com%2Fcss%3Ffamily%3DArchitects%2BDaughter;fontSize=12;fontColor=default;fillColor=default;" vertex="1" parent="WIyWlLk6GJQsqaUBKTNV-1">
          <mxGeometry x="10" y="580" width="1260" height="560" as="geometry" />
        </mxCell>
        <mxCell id="u-MCPZwp57srw_KDi1BU-48" value="" style="rounded=1;whiteSpace=wrap;html=1;hachureGap=4;strokeColor=#36393d;align=center;verticalAlign=middle;fontFamily=Architects Daughter;fontSource=https%3A%2F%2Ffonts.googleapis.com%2Fcss%3Ffamily%3DArchitects%2BDaughter;fontSize=12;fillColor=#eeeeee;dashed=1;dashPattern=8 8;" vertex="1" parent="WIyWlLk6GJQsqaUBKTNV-1">
          <mxGeometry x="415" y="155" width="220" height="170" as="geometry" />
        </mxCell>
        <mxCell id="u-MCPZwp57srw_KDi1BU-46" value="" style="rounded=1;whiteSpace=wrap;html=1;hachureGap=4;strokeColor=#36393d;align=center;verticalAlign=middle;fontFamily=Architects Daughter;fontSource=https%3A%2F%2Ffonts.googleapis.com%2Fcss%3Ffamily%3DArchitects%2BDaughter;fontSize=12;fillColor=#eeeeee;dashed=1;dashPattern=8 8;" vertex="1" parent="WIyWlLk6GJQsqaUBKTNV-1">
          <mxGeometry x="172.5" y="155" width="220" height="170" as="geometry" />
        </mxCell>
        <mxCell id="u-MCPZwp57srw_KDi1BU-0" value="" style="rounded=1;whiteSpace=wrap;html=1;hachureGap=4;fontFamily=Architects Daughter;fontSource=https%3A%2F%2Ffonts.googleapis.com%2Fcss%3Ffamily%3DArchitects%2BDaughter;fillColor=#ffe6cc;strokeColor=#d79b00;" vertex="1" parent="WIyWlLk6GJQsqaUBKTNV-1">
          <mxGeometry x="205" y="429" width="30" height="20" as="geometry" />
        </mxCell>
        <mxCell id="u-MCPZwp57srw_KDi1BU-2" value="" style="rounded=1;whiteSpace=wrap;html=1;hachureGap=4;fontFamily=Architects Daughter;fontSource=https%3A%2F%2Ffonts.googleapis.com%2Fcss%3Ffamily%3DArchitects%2BDaughter;fillColor=#fff2cc;strokeColor=#d6b656;" vertex="1" parent="WIyWlLk6GJQsqaUBKTNV-1">
          <mxGeometry x="235" y="429" width="30" height="20" as="geometry" />
        </mxCell>
        <mxCell id="u-MCPZwp57srw_KDi1BU-3" value="" style="rounded=1;whiteSpace=wrap;html=1;hachureGap=4;fontFamily=Architects Daughter;fontSource=https%3A%2F%2Ffonts.googleapis.com%2Fcss%3Ffamily%3DArchitects%2BDaughter;fillColor=#f8cecc;strokeColor=#b85450;" vertex="1" parent="WIyWlLk6GJQsqaUBKTNV-1">
          <mxGeometry x="265" y="429" width="30" height="20" as="geometry" />
        </mxCell>
        <mxCell id="u-MCPZwp57srw_KDi1BU-4" value="" style="rounded=1;whiteSpace=wrap;html=1;hachureGap=4;fontFamily=Architects Daughter;fontSource=https%3A%2F%2Ffonts.googleapis.com%2Fcss%3Ffamily%3DArchitects%2BDaughter;fillColor=#e1d5e7;strokeColor=#9673a6;" vertex="1" parent="WIyWlLk6GJQsqaUBKTNV-1">
          <mxGeometry x="295" y="429" width="30" height="20" as="geometry" />
        </mxCell>
        <mxCell id="u-MCPZwp57srw_KDi1BU-5" value="用户特征" style="text;html=1;align=center;verticalAlign=middle;whiteSpace=wrap;rounded=0;fontFamily=Architects Daughter;fontSource=https%3A%2F%2Ffonts.googleapis.com%2Fcss%3Ffamily%3DArchitects%2BDaughter;fontSize=12;fontColor=default;" vertex="1" parent="WIyWlLk6GJQsqaUBKTNV-1">
          <mxGeometry x="250" y="449" width="60" height="30" as="geometry" />
        </mxCell>
        <mxCell id="u-MCPZwp57srw_KDi1BU-12" value="&lt;font face=&quot;Helvetica&quot;&gt;Embedding Layer&lt;/font&gt;" style="rounded=1;whiteSpace=wrap;html=1;hachureGap=4;strokeColor=#d79b00;align=center;verticalAlign=middle;fontFamily=Architects Daughter;fontSource=https%3A%2F%2Ffonts.googleapis.com%2Fcss%3Ffamily%3DArchitects%2BDaughter;fontSize=12;fillColor=#ffe6cc;fontStyle=1" vertex="1" parent="WIyWlLk6GJQsqaUBKTNV-1">
          <mxGeometry x="180" y="377" width="450" height="40" as="geometry" />
        </mxCell>
        <mxCell id="u-MCPZwp57srw_KDi1BU-13" value="" style="rounded=1;whiteSpace=wrap;html=1;hachureGap=4;fontFamily=Architects Daughter;fontSource=https%3A%2F%2Ffonts.googleapis.com%2Fcss%3Ffamily%3DArchitects%2BDaughter;fillColor=#f5f5f5;fontColor=#333333;strokeColor=#666666;" vertex="1" parent="WIyWlLk6GJQsqaUBKTNV-1">
          <mxGeometry x="325" y="429" width="30" height="20" as="geometry" />
        </mxCell>
        <mxCell id="u-MCPZwp57srw_KDi1BU-14" value="" style="rounded=1;whiteSpace=wrap;html=1;hachureGap=4;fontFamily=Architects Daughter;fontSource=https%3A%2F%2Ffonts.googleapis.com%2Fcss%3Ffamily%3DArchitects%2BDaughter;fillColor=#0050ef;fontColor=#ffffff;strokeColor=#001DBC;" vertex="1" parent="WIyWlLk6GJQsqaUBKTNV-1">
          <mxGeometry x="450" y="433" width="30" height="20" as="geometry" />
        </mxCell>
        <mxCell id="u-MCPZwp57srw_KDi1BU-15" value="" style="rounded=1;whiteSpace=wrap;html=1;hachureGap=4;fontFamily=Architects Daughter;fontSource=https%3A%2F%2Ffonts.googleapis.com%2Fcss%3Ffamily%3DArchitects%2BDaughter;fillColor=#6a00ff;fontColor=#ffffff;strokeColor=#3700CC;" vertex="1" parent="WIyWlLk6GJQsqaUBKTNV-1">
          <mxGeometry x="480" y="433" width="30" height="20" as="geometry" />
        </mxCell>
        <mxCell id="u-MCPZwp57srw_KDi1BU-16" value="" style="rounded=1;whiteSpace=wrap;html=1;hachureGap=4;fontFamily=Architects Daughter;fontSource=https%3A%2F%2Ffonts.googleapis.com%2Fcss%3Ffamily%3DArchitects%2BDaughter;fillColor=#60a917;fontColor=#ffffff;strokeColor=#2D7600;" vertex="1" parent="WIyWlLk6GJQsqaUBKTNV-1">
          <mxGeometry x="510" y="433" width="30" height="20" as="geometry" />
        </mxCell>
        <mxCell id="u-MCPZwp57srw_KDi1BU-17" value="" style="rounded=1;whiteSpace=wrap;html=1;hachureGap=4;fontFamily=Architects Daughter;fontSource=https%3A%2F%2Ffonts.googleapis.com%2Fcss%3Ffamily%3DArchitects%2BDaughter;fillColor=#1ba1e2;fontColor=#ffffff;strokeColor=#006EAF;" vertex="1" parent="WIyWlLk6GJQsqaUBKTNV-1">
          <mxGeometry x="540" y="433" width="30" height="20" as="geometry" />
        </mxCell>
        <mxCell id="u-MCPZwp57srw_KDi1BU-18" value="广告特征" style="text;html=1;align=center;verticalAlign=middle;whiteSpace=wrap;rounded=0;fontFamily=Architects Daughter;fontSource=https%3A%2F%2Ffonts.googleapis.com%2Fcss%3Ffamily%3DArchitects%2BDaughter;fontSize=12;fontColor=default;" vertex="1" parent="WIyWlLk6GJQsqaUBKTNV-1">
          <mxGeometry x="495" y="453" width="60" height="30" as="geometry" />
        </mxCell>
        <mxCell id="u-MCPZwp57srw_KDi1BU-19" value="" style="rounded=1;whiteSpace=wrap;html=1;hachureGap=4;fontFamily=Architects Daughter;fontSource=https%3A%2F%2Ffonts.googleapis.com%2Fcss%3Ffamily%3DArchitects%2BDaughter;fillColor=#a20025;fontColor=#ffffff;strokeColor=#6F0000;" vertex="1" parent="WIyWlLk6GJQsqaUBKTNV-1">
          <mxGeometry x="570" y="433" width="30" height="20" as="geometry" />
        </mxCell>
        <mxCell id="u-MCPZwp57srw_KDi1BU-29" style="edgeStyle=orthogonalEdgeStyle;rounded=0;hachureGap=4;orthogonalLoop=1;jettySize=auto;html=1;exitX=0.5;exitY=0;exitDx=0;exitDy=0;entryX=0.5;entryY=1;entryDx=0;entryDy=0;fontFamily=Architects Daughter;fontSource=https%3A%2F%2Ffonts.googleapis.com%2Fcss%3Ffamily%3DArchitects%2BDaughter;fontSize=12;fontColor=default;endArrow=blockThin;endFill=1;" edge="1" parent="WIyWlLk6GJQsqaUBKTNV-1" source="u-MCPZwp57srw_KDi1BU-20" target="u-MCPZwp57srw_KDi1BU-23">
          <mxGeometry relative="1" as="geometry" />
        </mxCell>
        <mxCell id="u-MCPZwp57srw_KDi1BU-20" value="&lt;font face=&quot;Helvetica&quot;&gt;concat&lt;/font&gt;" style="rounded=1;whiteSpace=wrap;html=1;hachureGap=4;strokeColor=default;align=center;verticalAlign=middle;fontFamily=Architects Daughter;fontSource=https%3A%2F%2Ffonts.googleapis.com%2Fcss%3Ffamily%3DArchitects%2BDaughter;fontSize=12;fontColor=default;fillColor=#D4E1F5;" vertex="1" parent="WIyWlLk6GJQsqaUBKTNV-1">
          <mxGeometry x="200" y="285" width="170" height="20" as="geometry" />
        </mxCell>
        <mxCell id="u-MCPZwp57srw_KDi1BU-30" style="edgeStyle=orthogonalEdgeStyle;rounded=0;hachureGap=4;orthogonalLoop=1;jettySize=auto;html=1;exitX=0.5;exitY=0;exitDx=0;exitDy=0;entryX=0.5;entryY=1;entryDx=0;entryDy=0;fontFamily=Architects Daughter;fontSource=https%3A%2F%2Ffonts.googleapis.com%2Fcss%3Ffamily%3DArchitects%2BDaughter;fontSize=12;fontColor=default;endArrow=blockThin;endFill=1;" edge="1" parent="WIyWlLk6GJQsqaUBKTNV-1" source="u-MCPZwp57srw_KDi1BU-22" target="u-MCPZwp57srw_KDi1BU-24">
          <mxGeometry relative="1" as="geometry" />
        </mxCell>
        <mxCell id="u-MCPZwp57srw_KDi1BU-22" value="&lt;font face=&quot;Helvetica&quot;&gt;concat&lt;/font&gt;" style="rounded=1;whiteSpace=wrap;html=1;hachureGap=4;strokeColor=#006EAF;align=center;verticalAlign=middle;fontFamily=Architects Daughter;fontSource=https%3A%2F%2Ffonts.googleapis.com%2Fcss%3Ffamily%3DArchitects%2BDaughter;fontSize=12;fontColor=#ffffff;fillColor=#1ba1e2;" vertex="1" parent="WIyWlLk6GJQsqaUBKTNV-1">
          <mxGeometry x="440" y="286" width="170" height="20" as="geometry" />
        </mxCell>
        <mxCell id="u-MCPZwp57srw_KDi1BU-32" style="edgeStyle=orthogonalEdgeStyle;rounded=0;hachureGap=4;orthogonalLoop=1;jettySize=auto;html=1;exitX=0.5;exitY=0;exitDx=0;exitDy=0;entryX=0.5;entryY=1;entryDx=0;entryDy=0;fontFamily=Architects Daughter;fontSource=https%3A%2F%2Ffonts.googleapis.com%2Fcss%3Ffamily%3DArchitects%2BDaughter;fontSize=12;fontColor=default;endArrow=blockThin;endFill=1;" edge="1" parent="WIyWlLk6GJQsqaUBKTNV-1" source="u-MCPZwp57srw_KDi1BU-23" target="u-MCPZwp57srw_KDi1BU-25">
          <mxGeometry relative="1" as="geometry" />
        </mxCell>
        <mxCell id="u-MCPZwp57srw_KDi1BU-23" value="&lt;font face=&quot;Helvetica&quot;&gt;MLP&lt;/font&gt;" style="shape=trapezoid;perimeter=trapezoidPerimeter;whiteSpace=wrap;html=1;fixedSize=1;rounded=0;hachureGap=4;strokeColor=default;align=center;verticalAlign=middle;fontFamily=Architects Daughter;fontSource=https%3A%2F%2Ffonts.googleapis.com%2Fcss%3Ffamily%3DArchitects%2BDaughter;fontSize=12;fontColor=default;fillColor=#D4E1F5;" vertex="1" parent="WIyWlLk6GJQsqaUBKTNV-1">
          <mxGeometry x="200" y="210" width="170" height="60" as="geometry" />
        </mxCell>
        <mxCell id="u-MCPZwp57srw_KDi1BU-33" style="edgeStyle=orthogonalEdgeStyle;rounded=0;hachureGap=4;orthogonalLoop=1;jettySize=auto;html=1;exitX=0.5;exitY=0;exitDx=0;exitDy=0;entryX=0.5;entryY=1;entryDx=0;entryDy=0;fontFamily=Architects Daughter;fontSource=https%3A%2F%2Ffonts.googleapis.com%2Fcss%3Ffamily%3DArchitects%2BDaughter;fontSize=12;fontColor=default;endArrow=blockThin;endFill=1;" edge="1" parent="WIyWlLk6GJQsqaUBKTNV-1" source="u-MCPZwp57srw_KDi1BU-24" target="u-MCPZwp57srw_KDi1BU-26">
          <mxGeometry relative="1" as="geometry" />
        </mxCell>
        <mxCell id="u-MCPZwp57srw_KDi1BU-24" value="&lt;font face=&quot;Helvetica&quot;&gt;MLP&lt;/font&gt;" style="shape=trapezoid;perimeter=trapezoidPerimeter;whiteSpace=wrap;html=1;fixedSize=1;rounded=0;hachureGap=4;strokeColor=#006EAF;align=center;verticalAlign=middle;fontFamily=Architects Daughter;fontSource=https%3A%2F%2Ffonts.googleapis.com%2Fcss%3Ffamily%3DArchitects%2BDaughter;fontSize=12;fontColor=#ffffff;fillColor=#1ba1e2;" vertex="1" parent="WIyWlLk6GJQsqaUBKTNV-1">
          <mxGeometry x="440" y="210" width="170" height="60" as="geometry" />
        </mxCell>
        <mxCell id="u-MCPZwp57srw_KDi1BU-34" style="rounded=0;hachureGap=4;orthogonalLoop=1;jettySize=auto;html=1;exitX=0.5;exitY=0;exitDx=0;exitDy=0;entryX=0.5;entryY=1;entryDx=0;entryDy=0;fontFamily=Architects Daughter;fontSource=https%3A%2F%2Ffonts.googleapis.com%2Fcss%3Ffamily%3DArchitects%2BDaughter;fontSize=12;fontColor=default;endArrow=blockThin;endFill=1;" edge="1" parent="WIyWlLk6GJQsqaUBKTNV-1" source="u-MCPZwp57srw_KDi1BU-25" target="u-MCPZwp57srw_KDi1BU-28">
          <mxGeometry relative="1" as="geometry" />
        </mxCell>
        <mxCell id="u-MCPZwp57srw_KDi1BU-25" value="&lt;font face=&quot;Helvetica&quot;&gt;user embedding&lt;/font&gt;" style="rounded=1;whiteSpace=wrap;html=1;hachureGap=4;strokeColor=default;align=center;verticalAlign=middle;fontFamily=Architects Daughter;fontSource=https%3A%2F%2Ffonts.googleapis.com%2Fcss%3Ffamily%3DArchitects%2BDaughter;fontSize=12;fontColor=default;fillColor=#D4E1F5;" vertex="1" parent="WIyWlLk6GJQsqaUBKTNV-1">
          <mxGeometry x="235" y="170" width="95" height="20" as="geometry" />
        </mxCell>
        <mxCell id="u-MCPZwp57srw_KDi1BU-35" style="rounded=0;hachureGap=4;orthogonalLoop=1;jettySize=auto;html=1;exitX=0.5;exitY=0;exitDx=0;exitDy=0;entryX=0.5;entryY=1;entryDx=0;entryDy=0;fontFamily=Architects Daughter;fontSource=https%3A%2F%2Ffonts.googleapis.com%2Fcss%3Ffamily%3DArchitects%2BDaughter;fontSize=12;fontColor=default;" edge="1" parent="WIyWlLk6GJQsqaUBKTNV-1" source="u-MCPZwp57srw_KDi1BU-26" target="u-MCPZwp57srw_KDi1BU-28">
          <mxGeometry relative="1" as="geometry" />
        </mxCell>
        <mxCell id="u-MCPZwp57srw_KDi1BU-60" style="rounded=0;hachureGap=4;orthogonalLoop=1;jettySize=auto;html=1;exitX=1;exitY=0.5;exitDx=0;exitDy=0;entryX=0;entryY=0.5;entryDx=0;entryDy=0;fontFamily=Architects Daughter;fontSource=https%3A%2F%2Ffonts.googleapis.com%2Fcss%3Ffamily%3DArchitects%2BDaughter;fontSize=12;fontColor=default;dashed=1;dashPattern=1 1;" edge="1" parent="WIyWlLk6GJQsqaUBKTNV-1" source="u-MCPZwp57srw_KDi1BU-26" target="u-MCPZwp57srw_KDi1BU-59">
          <mxGeometry relative="1" as="geometry" />
        </mxCell>
        <mxCell id="u-MCPZwp57srw_KDi1BU-26" value="&lt;font face=&quot;Helvetica&quot;&gt;ads embedding&lt;/font&gt;" style="rounded=1;whiteSpace=wrap;html=1;hachureGap=4;strokeColor=#006EAF;align=center;verticalAlign=middle;fontFamily=Architects Daughter;fontSource=https%3A%2F%2Ffonts.googleapis.com%2Fcss%3Ffamily%3DArchitects%2BDaughter;fontSize=12;fontColor=#ffffff;fillColor=#1ba1e2;" vertex="1" parent="WIyWlLk6GJQsqaUBKTNV-1">
          <mxGeometry x="477.5" y="170" width="95" height="20" as="geometry" />
        </mxCell>
        <mxCell id="u-MCPZwp57srw_KDi1BU-28" value="Cosine" style="ellipse;whiteSpace=wrap;html=1;rounded=1;hachureGap=4;strokeColor=#C73500;align=center;verticalAlign=middle;fontFamily=Helvetica;fontSize=12;fontColor=#000000;fillColor=#fa6800;" vertex="1" parent="WIyWlLk6GJQsqaUBKTNV-1">
          <mxGeometry x="362.5" y="90" width="85" height="30" as="geometry" />
        </mxCell>
        <mxCell id="u-MCPZwp57srw_KDi1BU-39" style="edgeStyle=orthogonalEdgeStyle;rounded=0;hachureGap=4;orthogonalLoop=1;jettySize=auto;html=1;exitX=0.5;exitY=0;exitDx=0;exitDy=0;entryX=0.5;entryY=1;entryDx=0;entryDy=0;fontFamily=Architects Daughter;fontSource=https%3A%2F%2Ffonts.googleapis.com%2Fcss%3Ffamily%3DArchitects%2BDaughter;fontSize=12;fontColor=default;endArrow=blockThin;endFill=1;" edge="1" parent="WIyWlLk6GJQsqaUBKTNV-1" source="u-MCPZwp57srw_KDi1BU-36" target="u-MCPZwp57srw_KDi1BU-20">
          <mxGeometry relative="1" as="geometry" />
        </mxCell>
        <mxCell id="u-MCPZwp57srw_KDi1BU-36" value="&lt;font face=&quot;Helvetica&quot;&gt;&lt;b&gt;sparse pooling&lt;/b&gt;&lt;/font&gt;" style="rounded=1;whiteSpace=wrap;html=1;hachureGap=4;strokeColor=default;align=center;verticalAlign=middle;fontFamily=Architects Daughter;fontSource=https%3A%2F%2Ffonts.googleapis.com%2Fcss%3Ffamily%3DArchitects%2BDaughter;fontSize=12;fontColor=default;fillColor=#FFCE9F;" vertex="1" parent="WIyWlLk6GJQsqaUBKTNV-1">
          <mxGeometry x="235" y="336" width="100" height="20" as="geometry" />
        </mxCell>
        <mxCell id="u-MCPZwp57srw_KDi1BU-38" style="edgeStyle=orthogonalEdgeStyle;rounded=0;hachureGap=4;orthogonalLoop=1;jettySize=auto;html=1;exitX=0.5;exitY=0;exitDx=0;exitDy=0;entryX=0.5;entryY=1;entryDx=0;entryDy=0;fontFamily=Architects Daughter;fontSource=https%3A%2F%2Ffonts.googleapis.com%2Fcss%3Ffamily%3DArchitects%2BDaughter;fontSize=12;fontColor=default;endArrow=blockThin;endFill=1;" edge="1" parent="WIyWlLk6GJQsqaUBKTNV-1" source="u-MCPZwp57srw_KDi1BU-37" target="u-MCPZwp57srw_KDi1BU-22">
          <mxGeometry relative="1" as="geometry" />
        </mxCell>
        <mxCell id="u-MCPZwp57srw_KDi1BU-58" style="rounded=0;hachureGap=4;orthogonalLoop=1;jettySize=auto;html=1;exitX=1;exitY=0.5;exitDx=0;exitDy=0;fontFamily=Architects Daughter;fontSource=https%3A%2F%2Ffonts.googleapis.com%2Fcss%3Ffamily%3DArchitects%2BDaughter;fontSize=12;fontColor=default;dashed=1;dashPattern=1 1;entryX=0;entryY=0.5;entryDx=0;entryDy=0;" edge="1" parent="WIyWlLk6GJQsqaUBKTNV-1" source="u-MCPZwp57srw_KDi1BU-37" target="u-MCPZwp57srw_KDi1BU-55">
          <mxGeometry relative="1" as="geometry" />
        </mxCell>
        <mxCell id="u-MCPZwp57srw_KDi1BU-37" value="&lt;font face=&quot;Helvetica&quot;&gt;&lt;b&gt;sparse pooling&lt;/b&gt;&lt;/font&gt;" style="rounded=1;whiteSpace=wrap;html=1;hachureGap=4;strokeColor=default;align=center;verticalAlign=middle;fontFamily=Architects Daughter;fontSource=https%3A%2F%2Ffonts.googleapis.com%2Fcss%3Ffamily%3DArchitects%2BDaughter;fontSize=12;fontColor=default;fillColor=#FFCE9F;" vertex="1" parent="WIyWlLk6GJQsqaUBKTNV-1">
          <mxGeometry x="475" y="336" width="100" height="20" as="geometry" />
        </mxCell>
        <mxCell id="u-MCPZwp57srw_KDi1BU-41" style="edgeStyle=orthogonalEdgeStyle;rounded=0;hachureGap=4;orthogonalLoop=1;jettySize=auto;html=1;exitX=0.5;exitY=0;exitDx=0;exitDy=0;entryX=0.5;entryY=1;entryDx=0;entryDy=0;fontFamily=Architects Daughter;fontSource=https%3A%2F%2Ffonts.googleapis.com%2Fcss%3Ffamily%3DArchitects%2BDaughter;fontSize=12;fontColor=default;endArrow=blockThin;endFill=1;" edge="1" parent="WIyWlLk6GJQsqaUBKTNV-1">
          <mxGeometry relative="1" as="geometry">
            <mxPoint x="526" y="376" as="sourcePoint" />
            <mxPoint x="526" y="356" as="targetPoint" />
          </mxGeometry>
        </mxCell>
        <mxCell id="u-MCPZwp57srw_KDi1BU-42" style="edgeStyle=orthogonalEdgeStyle;rounded=0;hachureGap=4;orthogonalLoop=1;jettySize=auto;html=1;exitX=0.5;exitY=0;exitDx=0;exitDy=0;entryX=0.5;entryY=1;entryDx=0;entryDy=0;fontFamily=Architects Daughter;fontSource=https%3A%2F%2Ffonts.googleapis.com%2Fcss%3Ffamily%3DArchitects%2BDaughter;fontSize=12;fontColor=default;endArrow=blockThin;endFill=1;" edge="1" parent="WIyWlLk6GJQsqaUBKTNV-1">
          <mxGeometry relative="1" as="geometry">
            <mxPoint x="286" y="377" as="sourcePoint" />
            <mxPoint x="286" y="357" as="targetPoint" />
          </mxGeometry>
        </mxCell>
        <mxCell id="u-MCPZwp57srw_KDi1BU-49" value="&lt;font face=&quot;Helvetica&quot;&gt;广告塔&lt;/font&gt;" style="text;html=1;align=center;verticalAlign=middle;whiteSpace=wrap;rounded=0;fontFamily=Architects Daughter;fontSource=https%3A%2F%2Ffonts.googleapis.com%2Fcss%3Ffamily%3DArchitects%2BDaughter;fontSize=12;fontColor=default;fontStyle=1" vertex="1" parent="WIyWlLk6GJQsqaUBKTNV-1">
          <mxGeometry x="495" y="125" width="60" height="30" as="geometry" />
        </mxCell>
        <mxCell id="u-MCPZwp57srw_KDi1BU-50" value="&lt;font face=&quot;Helvetica&quot;&gt;用户塔&lt;/font&gt;" style="text;html=1;align=center;verticalAlign=middle;whiteSpace=wrap;rounded=0;fontFamily=Architects Daughter;fontSource=https%3A%2F%2Ffonts.googleapis.com%2Fcss%3Ffamily%3DArchitects%2BDaughter;fontSize=12;fontColor=default;fontStyle=1" vertex="1" parent="WIyWlLk6GJQsqaUBKTNV-1">
          <mxGeometry x="252.5" y="125" width="60" height="30" as="geometry" />
        </mxCell>
        <mxCell id="u-MCPZwp57srw_KDi1BU-55" value="Ad&amp;nbsp;&lt;div&gt;Input Signature&lt;/div&gt;" style="text;html=1;align=center;verticalAlign=middle;whiteSpace=wrap;rounded=1;fontFamily=Helvetica;fontSize=12;fillColor=#f9f7ed;strokeColor=#36393d;dashed=1;dashPattern=8 8;" vertex="1" parent="WIyWlLk6GJQsqaUBKTNV-1">
          <mxGeometry x="670" y="331" width="120" height="30" as="geometry" />
        </mxCell>
        <mxCell id="u-MCPZwp57srw_KDi1BU-59" value="Ad&amp;nbsp;&lt;div&gt;Output Signature&lt;/div&gt;" style="text;html=1;align=center;verticalAlign=middle;whiteSpace=wrap;rounded=1;fontFamily=Helvetica;fontSize=12;fillColor=#f9f7ed;strokeColor=#36393d;dashed=1;dashPattern=12 12;" vertex="1" parent="WIyWlLk6GJQsqaUBKTNV-1">
          <mxGeometry x="670" y="165" width="120" height="30" as="geometry" />
        </mxCell>
        <mxCell id="u-MCPZwp57srw_KDi1BU-61" value="" style="rounded=1;whiteSpace=wrap;html=1;hachureGap=4;fontFamily=Architects Daughter;fontSource=https%3A%2F%2Ffonts.googleapis.com%2Fcss%3Ffamily%3DArchitects%2BDaughter;fillColor=#ffe6cc;strokeColor=#d79b00;" vertex="1" parent="WIyWlLk6GJQsqaUBKTNV-1">
          <mxGeometry x="925" y="425" width="30" height="20" as="geometry" />
        </mxCell>
        <mxCell id="u-MCPZwp57srw_KDi1BU-62" value="" style="rounded=1;whiteSpace=wrap;html=1;hachureGap=4;fontFamily=Architects Daughter;fontSource=https%3A%2F%2Ffonts.googleapis.com%2Fcss%3Ffamily%3DArchitects%2BDaughter;fillColor=#fff2cc;strokeColor=#d6b656;" vertex="1" parent="WIyWlLk6GJQsqaUBKTNV-1">
          <mxGeometry x="955" y="425" width="30" height="20" as="geometry" />
        </mxCell>
        <mxCell id="u-MCPZwp57srw_KDi1BU-63" value="" style="rounded=1;whiteSpace=wrap;html=1;hachureGap=4;fontFamily=Architects Daughter;fontSource=https%3A%2F%2Ffonts.googleapis.com%2Fcss%3Ffamily%3DArchitects%2BDaughter;fillColor=#f8cecc;strokeColor=#b85450;" vertex="1" parent="WIyWlLk6GJQsqaUBKTNV-1">
          <mxGeometry x="985" y="425" width="30" height="20" as="geometry" />
        </mxCell>
        <mxCell id="u-MCPZwp57srw_KDi1BU-64" value="" style="rounded=1;whiteSpace=wrap;html=1;hachureGap=4;fontFamily=Architects Daughter;fontSource=https%3A%2F%2Ffonts.googleapis.com%2Fcss%3Ffamily%3DArchitects%2BDaughter;fillColor=#e1d5e7;strokeColor=#9673a6;" vertex="1" parent="WIyWlLk6GJQsqaUBKTNV-1">
          <mxGeometry x="1015" y="425" width="30" height="20" as="geometry" />
        </mxCell>
        <mxCell id="u-MCPZwp57srw_KDi1BU-65" value="用户特征" style="text;html=1;align=center;verticalAlign=middle;whiteSpace=wrap;rounded=0;fontFamily=Architects Daughter;fontSource=https%3A%2F%2Ffonts.googleapis.com%2Fcss%3Ffamily%3DArchitects%2BDaughter;fontSize=12;fontColor=default;" vertex="1" parent="WIyWlLk6GJQsqaUBKTNV-1">
          <mxGeometry x="970" y="445" width="60" height="30" as="geometry" />
        </mxCell>
        <mxCell id="u-MCPZwp57srw_KDi1BU-66" value="&lt;font face=&quot;Helvetica&quot;&gt;Embedding Layer&lt;/font&gt;" style="rounded=1;whiteSpace=wrap;html=1;hachureGap=4;strokeColor=#d79b00;align=center;verticalAlign=middle;fontFamily=Architects Daughter;fontSource=https%3A%2F%2Ffonts.googleapis.com%2Fcss%3Ffamily%3DArchitects%2BDaughter;fontSize=12;fillColor=#ffe6cc;fontStyle=1" vertex="1" parent="WIyWlLk6GJQsqaUBKTNV-1">
          <mxGeometry x="900" y="373" width="450" height="40" as="geometry" />
        </mxCell>
        <mxCell id="u-MCPZwp57srw_KDi1BU-67" value="" style="rounded=1;whiteSpace=wrap;html=1;hachureGap=4;fontFamily=Architects Daughter;fontSource=https%3A%2F%2Ffonts.googleapis.com%2Fcss%3Ffamily%3DArchitects%2BDaughter;fillColor=#f5f5f5;fontColor=#333333;strokeColor=#666666;" vertex="1" parent="WIyWlLk6GJQsqaUBKTNV-1">
          <mxGeometry x="1045" y="425" width="30" height="20" as="geometry" />
        </mxCell>
        <mxCell id="u-MCPZwp57srw_KDi1BU-68" value="" style="rounded=1;whiteSpace=wrap;html=1;hachureGap=4;fontFamily=Architects Daughter;fontSource=https%3A%2F%2Ffonts.googleapis.com%2Fcss%3Ffamily%3DArchitects%2BDaughter;fillColor=#0050ef;fontColor=#ffffff;strokeColor=#001DBC;" vertex="1" parent="WIyWlLk6GJQsqaUBKTNV-1">
          <mxGeometry x="1170" y="429" width="30" height="20" as="geometry" />
        </mxCell>
        <mxCell id="u-MCPZwp57srw_KDi1BU-69" value="" style="rounded=1;whiteSpace=wrap;html=1;hachureGap=4;fontFamily=Architects Daughter;fontSource=https%3A%2F%2Ffonts.googleapis.com%2Fcss%3Ffamily%3DArchitects%2BDaughter;fillColor=#6a00ff;fontColor=#ffffff;strokeColor=#3700CC;" vertex="1" parent="WIyWlLk6GJQsqaUBKTNV-1">
          <mxGeometry x="1200" y="429" width="30" height="20" as="geometry" />
        </mxCell>
        <mxCell id="u-MCPZwp57srw_KDi1BU-70" value="" style="rounded=1;whiteSpace=wrap;html=1;hachureGap=4;fontFamily=Architects Daughter;fontSource=https%3A%2F%2Ffonts.googleapis.com%2Fcss%3Ffamily%3DArchitects%2BDaughter;fillColor=#60a917;fontColor=#ffffff;strokeColor=#2D7600;" vertex="1" parent="WIyWlLk6GJQsqaUBKTNV-1">
          <mxGeometry x="1230" y="429" width="30" height="20" as="geometry" />
        </mxCell>
        <mxCell id="u-MCPZwp57srw_KDi1BU-71" value="" style="rounded=1;whiteSpace=wrap;html=1;hachureGap=4;fontFamily=Architects Daughter;fontSource=https%3A%2F%2Ffonts.googleapis.com%2Fcss%3Ffamily%3DArchitects%2BDaughter;fillColor=#1ba1e2;fontColor=#ffffff;strokeColor=#006EAF;" vertex="1" parent="WIyWlLk6GJQsqaUBKTNV-1">
          <mxGeometry x="1260" y="429" width="30" height="20" as="geometry" />
        </mxCell>
        <mxCell id="u-MCPZwp57srw_KDi1BU-72" value="广告特征" style="text;html=1;align=center;verticalAlign=middle;whiteSpace=wrap;rounded=0;fontFamily=Architects Daughter;fontSource=https%3A%2F%2Ffonts.googleapis.com%2Fcss%3Ffamily%3DArchitects%2BDaughter;fontSize=12;fontColor=default;" vertex="1" parent="WIyWlLk6GJQsqaUBKTNV-1">
          <mxGeometry x="1215" y="449" width="60" height="30" as="geometry" />
        </mxCell>
        <mxCell id="u-MCPZwp57srw_KDi1BU-73" value="" style="rounded=1;whiteSpace=wrap;html=1;hachureGap=4;fontFamily=Architects Daughter;fontSource=https%3A%2F%2Ffonts.googleapis.com%2Fcss%3Ffamily%3DArchitects%2BDaughter;fillColor=#a20025;fontColor=#ffffff;strokeColor=#6F0000;" vertex="1" parent="WIyWlLk6GJQsqaUBKTNV-1">
          <mxGeometry x="1290" y="429" width="30" height="20" as="geometry" />
        </mxCell>
      </root>
    </mxGraphModel>
  </diagram>
</mxfile>
